<svg id="visual" viewBox="0 0 900 600" width="900" height="600" xmlns="http://www.w3.org/2000/svg" xmlns:xlink="http://www.w3.org/1999/xlink" version="1.1"><g transform="translate(548.3568807310943 294.77094910300195)"><path d="M167.8 -314.9C228.5 -255.5 296.6 -233 324.1 -186.7C351.7 -140.3 338.9 -70.2 342.3 2C345.8 74.2 365.6 148.3 339.8 197.8C314.1 247.3 242.8 272.2 178.6 331.6C114.3 391 57.2 485 3.6 478.8C-50 472.6 -100 366.2 -186.6 319.7C-273.2 273.2 -396.4 286.6 -470.4 243.3C-544.4 200 -569.2 100 -533.4 20.7C-497.6 -58.7 -401.2 -117.3 -327.8 -161.6C-254.4 -206 -203.9 -235.9 -153.1 -301.1C-102.3 -366.2 -51.2 -466.6 1.2 -468.6C53.5 -470.7 107 -374.3 167.8 -314.9" fill="#E5958E"></path></g></svg>